# xmcd CD database file
#
# Track frame offsets:
#	150
#	13321
#	28182
#	43605
#	58840
#	70365
#	85492
#	105026
#	118173
#	132955
#	145105
#	160107
#	172253
#	191147
#	206606
#	221882
#	234379
#	249313
#	266647
#	286766
#	302985
#	316201
#
# Disc length: 4504 seconds
#
# Revision: 0
# Processed by: cddbd v1.5.2PL0 Copyright (c) Steve Scherf et al.
# Submitted via: CDex 1.51
#
DISCID=4d119616
DTITLE=Basie, Count - On The Beatles - The Atomic Mr. Basie
DYEAR=2011
DGENRE=Jazz
TTITLE0=Norwegian Wood 
TTITLE1=The Fool On The Hill 
TTITLE2=Something 
TTITLE3=With A Little Help From My Friends 
TTITLE4=Here, There And Everywhere 
TTITLE5=Get Back 
TTITLE6=Hey Jude 
TTITLE7=Eleanor Rigby
TTITLE8=Penny Lane
TTITLE9=Come Together 
TTITLE10=Yesterday 
TTITLE11=The Kid From Red Bank
TTITLE12=Duet 
TTITLE13=After Supper 
TTITLE14=Flight Of The Foo Birds
TTITLE15=Double-O
TTITLE16=Teddy The Toad
TTITLE17=Whirly-Bird 
TTITLE18=Midnite Blue 
TTITLE19=Splanky 
TTITLE20=Fantail 
TTITLE21=Lil'l Darlin' 
EXTD=YEAR: 2011
EXTT0=
EXTT1=
EXTT2=
EXTT3=
EXTT4=
EXTT5=
EXTT6=
EXTT7=
EXTT8=
EXTT9=
EXTT10=
EXTT11=
EXTT12=
EXTT13=
EXTT14=
EXTT15=
EXTT16=
EXTT17=
EXTT18=
EXTT19=
EXTT20=
EXTT21=
PLAYORDER=
